<svg xmlns="http://www.w3.org/2000/svg" viewBox="0 0 64 64" width="64" height="64">
  <defs>
    <linearGradient id="chameleonGradient" x1="0%" y1="0%" x2="100%" y2="100%">
      <stop offset="0%" style="stop-color:#9d4edd;stop-opacity:1" />
      <stop offset="50%" style="stop-color:#c77dff;stop-opacity:1" />
      <stop offset="100%" style="stop-color:#e0aaff;stop-opacity:1" />
    </linearGradient>
    <linearGradient id="eyeGradient" x1="0%" y1="0%" x2="100%" y2="100%">
      <stop offset="0%" style="stop-color:#ffffff;stop-opacity:1" />
      <stop offset="100%" style="stop-color:#f0f0f0;stop-opacity:1" />
    </linearGradient>
  </defs>
  
  <!-- Chameleon body -->
  <ellipse cx="32" cy="40" rx="25" ry="18" fill="url(#chameleonGradient)" stroke="#7b2cbf" stroke-width="1"/>
  
  <!-- Chameleon head -->
  <ellipse cx="28" cy="25" rx="15" ry="12" fill="url(#chameleonGradient)" stroke="#7b2cbf" stroke-width="1"/>
  
  <!-- Eyes -->
  <circle cx="24" cy="22" r="4" fill="url(#eyeGradient)" stroke="#7b2cbf" stroke-width="0.5"/>
  <circle cx="32" cy="20" r="4" fill="url(#eyeGradient)" stroke="#7b2cbf" stroke-width="0.5"/>
  
  <!-- Eye pupils -->
  <circle cx="24" cy="22" r="2" fill="#2d1b69"/>
  <circle cx="32" cy="20" r="2" fill="#2d1b69"/>
  
  <!-- Eye highlights -->
  <circle cx="25" cy="21" r="0.8" fill="#ffffff"/>
  <circle cx="33" cy="19" r="0.8" fill="#ffffff"/>
  
  <!-- Chameleon tail (curved) -->
  <path d="M 55 45 Q 58 38 55 32 Q 52 28 48 30 Q 45 32 47 36 Q 50 40 52 44" 
        fill="none" stroke="url(#chameleonGradient)" stroke-width="4" stroke-linecap="round"/>
  
  <!-- Front legs -->
  <ellipse cx="18" cy="45" rx="3" ry="8" fill="url(#chameleonGradient)" stroke="#7b2cbf" stroke-width="0.5"/>
  <ellipse cx="25" cy="47" rx="3" ry="8" fill="url(#chameleonGradient)" stroke="#7b2cbf" stroke-width="0.5"/>
  
  <!-- Back legs -->
  <ellipse cx="40" cy="47" rx="3" ry="8" fill="url(#chameleonGradient)" stroke="#7b2cbf" stroke-width="0.5"/>
  <ellipse cx="47" cy="45" rx="3" ry="8" fill="url(#chameleonGradient)" stroke="#7b2cbf" stroke-width="0.5"/>
  
  <!-- Small decorative spots -->
  <circle cx="35" cy="35" r="1.5" fill="#9d4edd" opacity="0.7"/>
  <circle cx="40" cy="42" r="1" fill="#c77dff" opacity="0.8"/>
  <circle cx="22" cy="38" r="1.2" fill="#e0aaff" opacity="0.6"/>
</svg>