<svg xmlns="http://www.w3.org/2000/svg" viewBox="0 0 32 32" width="32" height="32">
  <defs>
    <linearGradient id="gradient" x1="0%" y1="0%" x2="100%" y2="100%">
      <stop offset="0%" style="stop-color:#9d4edd"/>
      <stop offset="50%" style="stop-color:#c77dff"/>
      <stop offset="100%" style="stop-color:#e0aaff"/>
    </linearGradient>
  </defs>
  
  <!-- Chameleon body -->
  <ellipse cx="16" cy="20" rx="12" ry="8" fill="url(#gradient)" stroke="#7b2cbf" stroke-width="0.8"/>
  <ellipse cx="14" cy="12" rx="7" ry="5" fill="url(#gradient)" stroke="#7b2cbf" stroke-width="0.8"/>
  
  <!-- Eyes -->
  <circle cx="12" cy="10.5" r="2" fill="white" stroke="#7b2cbf" stroke-width="0.3"/>
  <circle cx="16.5" cy="9.5" r="2" fill="white" stroke="#7b2cbf" stroke-width="0.3"/>
  <circle cx="12" cy="10.5" r="1" fill="#2d1b69"/>
  <circle cx="16.5" cy="9.5" r="1" fill="#2d1b69"/>
  <circle cx="12.5" cy="10" r="0.4" fill="white"/>
  <circle cx="17" cy="9" r="0.4" fill="white"/>
  
  <!-- Curved tail -->
  <path d="M 26 22 Q 28 18 26 15 Q 24 13 22 14 Q 21 16 23 18 Q 25 20 26 22" 
        fill="none" stroke="url(#gradient)" stroke-width="2" stroke-linecap="round"/>
  
  <!-- Legs -->
  <ellipse cx="9" cy="22" rx="1.5" ry="3" fill="url(#gradient)"/>
  <ellipse cx="12.5" cy="23" rx="1.5" ry="3" fill="url(#gradient)"/>
  <ellipse cx="20" cy="23" rx="1.5" ry="3" fill="url(#gradient)"/>
  <ellipse cx="23.5" cy="22" rx="1.5" ry="3" fill="url(#gradient)"/>
</svg>